<svg version="1.1" viewBox="0.0 0.0 37.79527559055118 37.79527559055118" fill="none" stroke="none" stroke-linecap="square" stroke-miterlimit="10" xmlns:xlink="http://www.w3.org/1999/xlink" xmlns="http://www.w3.org/2000/svg"><clipPath id="p.0"><path d="m0 0l37.795277 0l0 37.795277l-37.795277 0l0 -37.795277z" clip-rule="nonzero"/></clipPath><g clip-path="url(#p.0)"><path fill="#ffffff" d="m0 0l37.795277 0l0 37.795277l-37.795277 0z" fill-rule="evenodd"/><path fill="#000000" fill-opacity="0.0" d="m1.2883971 5.471258l35.212597 0l0 15.086615l-35.212597 0z" fill-rule="evenodd"/><path fill="#000000" fill-opacity="0.0" d="m1.2883625 20.825613l35.2126 0l0 5.826771l-35.2126 0z" fill-rule="evenodd"/><path fill="#000000" d="m0.07870866 -0.0052041993l37.795277 0l0 37.795273l-37.795277 0z" fill-rule="evenodd"/><path fill="#000000" fill-opacity="0.0" d="m0.04502572 4.0341206l37.795277 0l0 27.590551l-37.795277 0z" fill-rule="evenodd"/><path fill="#ffffff" d="m11.107482 25.759396q-3.1875 0 -4.984375 -1.765625q-1.78125 -1.765625 -1.78125 -5.046875l0 -8.375l3.453125 0l0 8.234375q0 2.140625 0.875 3.078125q0.875 0.9375 2.453125 0.9375q1.578125 0 2.453125 -0.9375q0.875 -0.9375 0.875 -3.078125l0 -8.234375l3.421874 0l0 8.375q0 3.28125 -1.796875 5.046875q-1.796874 1.765625 -4.968749 1.765625zm10.165999 -0.25l0 -14.9375l6.375 0q3.125 0 4.843748 1.453125q1.734375 1.4375 1.734375 3.96875q0 1.671875 -0.796875 2.875q-0.78125 1.203125 -2.234373 1.84375q-1.453125 0.640625 -3.453125 0.640625l-4.546875 0l1.53125 -1.515625l0 5.671875l-3.453125 0zm9.5 0l-3.734375 -5.421875l3.6875 0l3.781248 5.421875l-3.734373 0zm-6.046875 -5.296875l-1.53125 -1.609375l4.359375 0q1.59375 0 2.375 -0.6875q0.796875 -0.703125 0.796875 -1.921875q0 -1.234375 -0.796875 -1.90625q-0.78125 -0.6875 -2.375 -0.6875l-4.359375 0l1.53125 -1.640625l0 8.453125z" fill-rule="nonzero"/></g></svg>